%TF.GenerationSoftware,KiCad,Pcbnew,7.0.2*%
%TF.CreationDate,2024-02-27T21:07:56+01:00*%
%TF.ProjectId,v50_sbc,7635305f-7362-4632-9e6b-696361645f70,rev?*%
%TF.SameCoordinates,Original*%
%TF.FileFunction,Soldermask,Bot*%
%TF.FilePolarity,Negative*%
%FSLAX46Y46*%
G04 Gerber Fmt 4.6, Leading zero omitted, Abs format (unit mm)*
G04 Created by KiCad (PCBNEW 7.0.2) date 2024-02-27 21:07:56*
%MOMM*%
%LPD*%
G01*
G04 APERTURE LIST*
%ADD10R,1.600000X1.600000*%
%ADD11C,1.600000*%
%ADD12O,1.600000X1.600000*%
%ADD13C,1.500000*%
%ADD14O,3.500000X2.000000*%
%ADD15O,2.000000X4.000000*%
%ADD16R,1.700000X1.700000*%
%ADD17O,1.700000X1.700000*%
%ADD18C,2.000000*%
%ADD19R,1.422400X1.422400*%
%ADD20C,1.422400*%
%ADD21R,1.780000X7.620000*%
%ADD22O,1.900000X1.200000*%
%ADD23O,2.800000X2.000000*%
%ADD24R,2.500000X2.500000*%
%ADD25C,2.500000*%
G04 APERTURE END LIST*
D10*
%TO.C,LS1*%
X111252000Y-40279000D03*
D11*
X111252000Y-46779000D03*
%TD*%
D10*
%TO.C,SW2*%
X139304000Y-41148000D03*
D12*
X136764000Y-41148000D03*
X134224000Y-41148000D03*
X131684000Y-41148000D03*
X129144000Y-41148000D03*
X126604000Y-41148000D03*
X124064000Y-41148000D03*
X121524000Y-41148000D03*
X121524000Y-48768000D03*
X124064000Y-48768000D03*
X126604000Y-48768000D03*
X129144000Y-48768000D03*
X131684000Y-48768000D03*
X134224000Y-48768000D03*
X136764000Y-48768000D03*
X139304000Y-48768000D03*
%TD*%
D13*
%TO.C,Y1*%
X83873000Y-65786000D03*
X88773000Y-65786000D03*
%TD*%
D10*
%TO.C,RN5*%
X141859000Y-52832000D03*
D12*
X139319000Y-52832000D03*
X136779000Y-52832000D03*
X134239000Y-52832000D03*
X131699000Y-52832000D03*
X129159000Y-52832000D03*
X126619000Y-52832000D03*
X124079000Y-52832000D03*
X121539000Y-52832000D03*
%TD*%
D14*
%TO.C,J3*%
X187635000Y-64411000D03*
X187635000Y-50711000D03*
D10*
X184785000Y-56261000D03*
D11*
X184785000Y-58861000D03*
X184785000Y-54161000D03*
X184785000Y-60961000D03*
X181985000Y-54161000D03*
X181985000Y-60961000D03*
D15*
X188435000Y-57561000D03*
%TD*%
D10*
%TO.C,U7*%
X138811000Y-76454000D03*
D12*
X138811000Y-78994000D03*
X138811000Y-81534000D03*
X138811000Y-84074000D03*
X138811000Y-86614000D03*
X138811000Y-89154000D03*
X138811000Y-91694000D03*
X138811000Y-94234000D03*
X138811000Y-96774000D03*
X138811000Y-99314000D03*
X138811000Y-101854000D03*
X138811000Y-104394000D03*
X138811000Y-106934000D03*
X138811000Y-109474000D03*
X154051000Y-109474000D03*
X154051000Y-106934000D03*
X154051000Y-104394000D03*
X154051000Y-101854000D03*
X154051000Y-99314000D03*
X154051000Y-96774000D03*
X154051000Y-94234000D03*
X154051000Y-91694000D03*
X154051000Y-89154000D03*
X154051000Y-86614000D03*
X154051000Y-84074000D03*
X154051000Y-81534000D03*
X154051000Y-78994000D03*
X154051000Y-76454000D03*
%TD*%
D10*
%TO.C,RN4*%
X82137000Y-39243000D03*
D12*
X82137000Y-41783000D03*
X82137000Y-44323000D03*
X82137000Y-46863000D03*
X82137000Y-49403000D03*
X82137000Y-51943000D03*
X82137000Y-54483000D03*
X82137000Y-57023000D03*
X82137000Y-59563000D03*
%TD*%
D16*
%TO.C,J4*%
X36830000Y-80523000D03*
D17*
X36830000Y-77983000D03*
X39370000Y-80523000D03*
X39370000Y-77983000D03*
X41910000Y-80523000D03*
X41910000Y-77983000D03*
X44450000Y-80523000D03*
X44450000Y-77983000D03*
X46990000Y-80523000D03*
X46990000Y-77983000D03*
%TD*%
D18*
%TO.C,SW1*%
X43763000Y-38390000D03*
X37263000Y-38390000D03*
X43763000Y-42890000D03*
X37263000Y-42890000D03*
%TD*%
D13*
%TO.C,Y2*%
X137594000Y-57404000D03*
X142494000Y-57404000D03*
%TD*%
D10*
%TO.C,RN1*%
X77343000Y-113665000D03*
D12*
X74803000Y-113665000D03*
X72263000Y-113665000D03*
X69723000Y-113665000D03*
X67183000Y-113665000D03*
X64643000Y-113665000D03*
X62103000Y-113665000D03*
X59563000Y-113665000D03*
X57023000Y-113665000D03*
%TD*%
D16*
%TO.C,JP2*%
X160528000Y-101727000D03*
D17*
X160528000Y-104267000D03*
%TD*%
D16*
%TO.C,J5*%
X45339000Y-73660000D03*
D17*
X45339000Y-71120000D03*
X45339000Y-68580000D03*
X45339000Y-66040000D03*
X45339000Y-63500000D03*
X45339000Y-60960000D03*
%TD*%
D19*
%TO.C,U6*%
X152273000Y-48387000D03*
D20*
X149733000Y-50927000D03*
X152273000Y-50927000D03*
X149733000Y-53467000D03*
X152273000Y-53467000D03*
X149733000Y-56007000D03*
X152273000Y-58547000D03*
X152273000Y-56007000D03*
X154813000Y-58547000D03*
X154813000Y-56007000D03*
X157353000Y-58547000D03*
X157353000Y-56007000D03*
X159893000Y-58547000D03*
X159893000Y-56007000D03*
X162433000Y-58547000D03*
X162433000Y-56007000D03*
X164973000Y-58547000D03*
X167513000Y-56007000D03*
X164973000Y-56007000D03*
X167513000Y-53467000D03*
X164973000Y-53467000D03*
X167513000Y-50927000D03*
X164973000Y-50927000D03*
X167513000Y-48387000D03*
X164973000Y-48387000D03*
X167513000Y-45847000D03*
X164973000Y-45847000D03*
X167513000Y-43307000D03*
X164973000Y-40767000D03*
X164973000Y-43307000D03*
X162433000Y-40767000D03*
X162433000Y-43307000D03*
X159893000Y-40767000D03*
X159893000Y-43307000D03*
X157353000Y-40767000D03*
X157353000Y-43307000D03*
X154813000Y-40767000D03*
X154813000Y-43307000D03*
X152273000Y-40767000D03*
X149733000Y-43307000D03*
X152273000Y-43307000D03*
X149733000Y-45847000D03*
X152273000Y-45847000D03*
X149733000Y-48387000D03*
%TD*%
D16*
%TO.C,JP1*%
X99573000Y-39624000D03*
D17*
X97033000Y-39624000D03*
%TD*%
D21*
%TO.C,J1*%
X37338000Y-125222000D03*
X39878000Y-125222000D03*
X42418000Y-125222000D03*
X44958000Y-125222000D03*
X47498000Y-125222000D03*
X50038000Y-125222000D03*
X52578000Y-125222000D03*
X55118000Y-125222000D03*
X57658000Y-125222000D03*
X60198000Y-125222000D03*
X62738000Y-125222000D03*
X65278000Y-125222000D03*
X67818000Y-125222000D03*
X70358000Y-125222000D03*
X72898000Y-125222000D03*
X75438000Y-125222000D03*
X77978000Y-125222000D03*
X80518000Y-125222000D03*
X90678000Y-125222000D03*
X93218000Y-125222000D03*
X95758000Y-125222000D03*
X98298000Y-125222000D03*
X100838000Y-125222000D03*
X103378000Y-125222000D03*
X105918000Y-125222000D03*
X108458000Y-125222000D03*
X110998000Y-125222000D03*
X113538000Y-125222000D03*
X116078000Y-125222000D03*
X118618000Y-125222000D03*
X121158000Y-125222000D03*
X123698000Y-125222000D03*
X126238000Y-125222000D03*
X128778000Y-125222000D03*
X131318000Y-125222000D03*
X133858000Y-125222000D03*
X136398000Y-125222000D03*
X138938000Y-125222000D03*
X141478000Y-125222000D03*
X144018000Y-125222000D03*
X146558000Y-125222000D03*
X149098000Y-125222000D03*
X151638000Y-125222000D03*
X154178000Y-125222000D03*
X156718000Y-125222000D03*
X159258000Y-125222000D03*
X161798000Y-125222000D03*
X164338000Y-125222000D03*
X166878000Y-125222000D03*
%TD*%
D13*
%TO.C,Y3*%
X175170000Y-94742000D03*
X170270000Y-94742000D03*
%TD*%
D22*
%TO.C,J2*%
X184287000Y-106151000D03*
X187837000Y-106151000D03*
X184287000Y-98951000D03*
X187837000Y-98951000D03*
%TD*%
D23*
%TO.C,H1*%
X183540000Y-38898200D03*
X183540000Y-46598200D03*
X188740000Y-38898200D03*
X188740000Y-46598200D03*
%TD*%
D10*
%TO.C,RN3*%
X86487000Y-39243000D03*
D12*
X86487000Y-41783000D03*
X86487000Y-44323000D03*
X86487000Y-46863000D03*
X86487000Y-49403000D03*
X86487000Y-51943000D03*
X86487000Y-54483000D03*
X86487000Y-57023000D03*
X86487000Y-59563000D03*
%TD*%
D10*
%TO.C,RN2*%
X77343000Y-116967000D03*
D12*
X74803000Y-116967000D03*
X72263000Y-116967000D03*
X69723000Y-116967000D03*
X67183000Y-116967000D03*
X64643000Y-116967000D03*
X62103000Y-116967000D03*
X59563000Y-116967000D03*
X57023000Y-116967000D03*
%TD*%
D10*
%TO.C,C17*%
X41060380Y-114300000D03*
D11*
X38560380Y-114300000D03*
%TD*%
D24*
%TO.C,X1*%
X45720000Y-107823000D03*
X45720000Y-100203000D03*
D25*
X45720000Y-92583000D03*
X38100000Y-92583000D03*
X38100000Y-107823000D03*
X38100000Y-100203000D03*
%TD*%
D10*
%TO.C,C19*%
X162981000Y-114300000D03*
D11*
X165481000Y-114300000D03*
%TD*%
D19*
%TO.C,U1*%
X51435000Y-53467000D03*
D20*
X53975000Y-53467000D03*
X51435000Y-56007000D03*
X53975000Y-56007000D03*
X51435000Y-58547000D03*
X53975000Y-58547000D03*
X51435000Y-61087000D03*
X53975000Y-61087000D03*
X51435000Y-63627000D03*
X53975000Y-66167000D03*
X53975000Y-63627000D03*
X56515000Y-66167000D03*
X56515000Y-63627000D03*
X59055000Y-66167000D03*
X59055000Y-63627000D03*
X61595000Y-66167000D03*
X61595000Y-63627000D03*
X64135000Y-66167000D03*
X64135000Y-63627000D03*
X66675000Y-66167000D03*
X66675000Y-63627000D03*
X69215000Y-66167000D03*
X69215000Y-63627000D03*
X71755000Y-66167000D03*
X71755000Y-63627000D03*
X74295000Y-66167000D03*
X76835000Y-63627000D03*
X74295000Y-63627000D03*
X76835000Y-61087000D03*
X74295000Y-61087000D03*
X76835000Y-58547000D03*
X74295000Y-58547000D03*
X76835000Y-56007000D03*
X74295000Y-56007000D03*
X76835000Y-53467000D03*
X74295000Y-53467000D03*
X76835000Y-50927000D03*
X74295000Y-50927000D03*
X76835000Y-48387000D03*
X74295000Y-48387000D03*
X76835000Y-45847000D03*
X74295000Y-45847000D03*
X76835000Y-43307000D03*
X74295000Y-40767000D03*
X74295000Y-43307000D03*
X71755000Y-40767000D03*
X71755000Y-43307000D03*
X69215000Y-40767000D03*
X69215000Y-43307000D03*
X66675000Y-40767000D03*
X66675000Y-43307000D03*
X64135000Y-40767000D03*
X64135000Y-43307000D03*
X61595000Y-40767000D03*
X61595000Y-43307000D03*
X59055000Y-40767000D03*
X59055000Y-43307000D03*
X56515000Y-40767000D03*
X56515000Y-43307000D03*
X53975000Y-40767000D03*
X51435000Y-43307000D03*
X53975000Y-43307000D03*
X51435000Y-45847000D03*
X53975000Y-45847000D03*
X51435000Y-48387000D03*
X53975000Y-48387000D03*
X51435000Y-50927000D03*
X53975000Y-50927000D03*
%TD*%
D19*
%TO.C,U10*%
X180467000Y-73279000D03*
D20*
X177927000Y-70739000D03*
X177927000Y-73279000D03*
X175387000Y-70739000D03*
X175387000Y-73279000D03*
X172847000Y-70739000D03*
X170307000Y-73279000D03*
X172847000Y-73279000D03*
X170307000Y-75819000D03*
X172847000Y-75819000D03*
X170307000Y-78359000D03*
X172847000Y-78359000D03*
X170307000Y-80899000D03*
X172847000Y-80899000D03*
X170307000Y-83439000D03*
X172847000Y-83439000D03*
X170307000Y-85979000D03*
X172847000Y-88519000D03*
X172847000Y-85979000D03*
X175387000Y-88519000D03*
X175387000Y-85979000D03*
X177927000Y-88519000D03*
X177927000Y-85979000D03*
X180467000Y-88519000D03*
X180467000Y-85979000D03*
X183007000Y-88519000D03*
X183007000Y-85979000D03*
X185547000Y-88519000D03*
X188087000Y-85979000D03*
X185547000Y-85979000D03*
X188087000Y-83439000D03*
X185547000Y-83439000D03*
X188087000Y-80899000D03*
X185547000Y-80899000D03*
X188087000Y-78359000D03*
X185547000Y-78359000D03*
X188087000Y-75819000D03*
X185547000Y-75819000D03*
X188087000Y-73279000D03*
X185547000Y-70739000D03*
X185547000Y-73279000D03*
X183007000Y-70739000D03*
X183007000Y-73279000D03*
X180467000Y-70739000D03*
%TD*%
D10*
%TO.C,C18*%
X85344000Y-115022621D03*
D11*
X85344000Y-117522621D03*
%TD*%
D23*
%TO.C,H2*%
X183540000Y-111669200D03*
X183540000Y-119369200D03*
X188740000Y-111669200D03*
X188740000Y-119369200D03*
%TD*%
M02*
