%TF.GenerationSoftware,KiCad,Pcbnew,7.0.2*%
%TF.CreationDate,2024-02-27T21:07:56+01:00*%
%TF.ProjectId,v50_sbc,7635305f-7362-4632-9e6b-696361645f70,rev?*%
%TF.SameCoordinates,Original*%
%TF.FileFunction,Soldermask,Top*%
%TF.FilePolarity,Negative*%
%FSLAX46Y46*%
G04 Gerber Fmt 4.6, Leading zero omitted, Abs format (unit mm)*
G04 Created by KiCad (PCBNEW 7.0.2) date 2024-02-27 21:07:56*
%MOMM*%
%LPD*%
G01*
G04 APERTURE LIST*
G04 Aperture macros list*
%AMRoundRect*
0 Rectangle with rounded corners*
0 $1 Rounding radius*
0 $2 $3 $4 $5 $6 $7 $8 $9 X,Y pos of 4 corners*
0 Add a 4 corners polygon primitive as box body*
4,1,4,$2,$3,$4,$5,$6,$7,$8,$9,$2,$3,0*
0 Add four circle primitives for the rounded corners*
1,1,$1+$1,$2,$3*
1,1,$1+$1,$4,$5*
1,1,$1+$1,$6,$7*
1,1,$1+$1,$8,$9*
0 Add four rect primitives between the rounded corners*
20,1,$1+$1,$2,$3,$4,$5,0*
20,1,$1+$1,$4,$5,$6,$7,0*
20,1,$1+$1,$6,$7,$8,$9,0*
20,1,$1+$1,$8,$9,$2,$3,0*%
G04 Aperture macros list end*
%ADD10RoundRect,0.250000X-0.400000X-0.450000X0.400000X-0.450000X0.400000X0.450000X-0.400000X0.450000X0*%
%ADD11R,1.600000X1.600000*%
%ADD12C,1.600000*%
%ADD13O,1.600000X1.600000*%
%ADD14C,1.500000*%
%ADD15RoundRect,0.225000X0.250000X-0.225000X0.250000X0.225000X-0.250000X0.225000X-0.250000X-0.225000X0*%
%ADD16RoundRect,0.200000X-0.200000X-0.275000X0.200000X-0.275000X0.200000X0.275000X-0.200000X0.275000X0*%
%ADD17O,3.500000X2.000000*%
%ADD18O,2.000000X4.000000*%
%ADD19RoundRect,0.100000X0.100000X-0.775000X0.100000X0.775000X-0.100000X0.775000X-0.100000X-0.775000X0*%
%ADD20RoundRect,0.100000X0.775000X-0.100000X0.775000X0.100000X-0.775000X0.100000X-0.775000X-0.100000X0*%
%ADD21RoundRect,0.200000X-0.275000X0.200000X-0.275000X-0.200000X0.275000X-0.200000X0.275000X0.200000X0*%
%ADD22RoundRect,0.225000X-0.225000X-0.250000X0.225000X-0.250000X0.225000X0.250000X-0.225000X0.250000X0*%
%ADD23RoundRect,0.200000X0.275000X-0.200000X0.275000X0.200000X-0.275000X0.200000X-0.275000X-0.200000X0*%
%ADD24RoundRect,0.200000X0.200000X0.275000X-0.200000X0.275000X-0.200000X-0.275000X0.200000X-0.275000X0*%
%ADD25RoundRect,0.150000X-0.587500X-0.150000X0.587500X-0.150000X0.587500X0.150000X-0.587500X0.150000X0*%
%ADD26RoundRect,0.150000X0.150000X-0.587500X0.150000X0.587500X-0.150000X0.587500X-0.150000X-0.587500X0*%
%ADD27RoundRect,0.250000X-0.787500X-1.025000X0.787500X-1.025000X0.787500X1.025000X-0.787500X1.025000X0*%
%ADD28RoundRect,0.250000X-0.375000X-0.625000X0.375000X-0.625000X0.375000X0.625000X-0.375000X0.625000X0*%
%ADD29RoundRect,0.250000X-0.475000X0.250000X-0.475000X-0.250000X0.475000X-0.250000X0.475000X0.250000X0*%
%ADD30RoundRect,0.225000X-0.250000X0.225000X-0.250000X-0.225000X0.250000X-0.225000X0.250000X0.225000X0*%
%ADD31R,1.700000X1.700000*%
%ADD32O,1.700000X1.700000*%
%ADD33C,2.000000*%
%ADD34RoundRect,0.225000X0.225000X0.250000X-0.225000X0.250000X-0.225000X-0.250000X0.225000X-0.250000X0*%
%ADD35RoundRect,0.250000X-0.625000X0.375000X-0.625000X-0.375000X0.625000X-0.375000X0.625000X0.375000X0*%
%ADD36RoundRect,0.250000X0.475000X-0.250000X0.475000X0.250000X-0.475000X0.250000X-0.475000X-0.250000X0*%
%ADD37RoundRect,0.150000X0.150000X-0.825000X0.150000X0.825000X-0.150000X0.825000X-0.150000X-0.825000X0*%
%ADD38RoundRect,0.150000X-0.825000X-0.150000X0.825000X-0.150000X0.825000X0.150000X-0.825000X0.150000X0*%
%ADD39RoundRect,0.250000X0.787500X1.025000X-0.787500X1.025000X-0.787500X-1.025000X0.787500X-1.025000X0*%
%ADD40RoundRect,0.250000X0.375000X0.625000X-0.375000X0.625000X-0.375000X-0.625000X0.375000X-0.625000X0*%
%ADD41R,1.422400X1.422400*%
%ADD42C,1.422400*%
%ADD43RoundRect,0.250000X0.262500X0.450000X-0.262500X0.450000X-0.262500X-0.450000X0.262500X-0.450000X0*%
%ADD44RoundRect,0.250000X-1.025000X0.787500X-1.025000X-0.787500X1.025000X-0.787500X1.025000X0.787500X0*%
%ADD45RoundRect,0.250000X0.650000X-0.325000X0.650000X0.325000X-0.650000X0.325000X-0.650000X-0.325000X0*%
%ADD46R,1.780000X7.620000*%
%ADD47RoundRect,0.250000X-0.400000X-0.600000X0.400000X-0.600000X0.400000X0.600000X-0.400000X0.600000X0*%
%ADD48R,0.500000X0.600000*%
%ADD49R,1.300000X0.424600*%
%ADD50O,1.900000X1.200000*%
%ADD51RoundRect,0.450000X1.450000X0.450000X-1.450000X0.450000X-1.450000X-0.450000X1.450000X-0.450000X0*%
%ADD52RoundRect,0.250000X-0.600000X0.400000X-0.600000X-0.400000X0.600000X-0.400000X0.600000X0.400000X0*%
%ADD53O,2.800000X2.000000*%
%ADD54RoundRect,0.250000X-0.262500X-0.450000X0.262500X-0.450000X0.262500X0.450000X-0.262500X0.450000X0*%
%ADD55RoundRect,0.250000X0.400000X0.600000X-0.400000X0.600000X-0.400000X-0.600000X0.400000X-0.600000X0*%
%ADD56RoundRect,0.150000X0.825000X0.150000X-0.825000X0.150000X-0.825000X-0.150000X0.825000X-0.150000X0*%
%ADD57R,2.500000X2.500000*%
%ADD58C,2.500000*%
%ADD59RoundRect,0.250000X0.250000X0.475000X-0.250000X0.475000X-0.250000X-0.475000X0.250000X-0.475000X0*%
%ADD60RoundRect,0.150000X-0.875000X-0.150000X0.875000X-0.150000X0.875000X0.150000X-0.875000X0.150000X0*%
G04 APERTURE END LIST*
D10*
%TO.C,D5*%
X185600000Y-108966000D03*
X182700000Y-108966000D03*
%TD*%
D11*
%TO.C,LS1*%
X111252000Y-40279000D03*
D12*
X111252000Y-46779000D03*
%TD*%
D11*
%TO.C,SW2*%
X139304000Y-41148000D03*
D13*
X136764000Y-41148000D03*
X134224000Y-41148000D03*
X131684000Y-41148000D03*
X129144000Y-41148000D03*
X126604000Y-41148000D03*
X124064000Y-41148000D03*
X121524000Y-41148000D03*
X121524000Y-48768000D03*
X124064000Y-48768000D03*
X126604000Y-48768000D03*
X129144000Y-48768000D03*
X131684000Y-48768000D03*
X134224000Y-48768000D03*
X136764000Y-48768000D03*
X139304000Y-48768000D03*
%TD*%
D14*
%TO.C,Y1*%
X83873000Y-65786000D03*
X88773000Y-65786000D03*
%TD*%
D15*
%TO.C,C4*%
X72517000Y-77216000D03*
X72517000Y-75666000D03*
%TD*%
D16*
%TO.C,R11*%
X36005000Y-47752000D03*
X37655000Y-47752000D03*
%TD*%
D11*
%TO.C,RN5*%
X141859000Y-52832000D03*
D13*
X139319000Y-52832000D03*
X136779000Y-52832000D03*
X134239000Y-52832000D03*
X131699000Y-52832000D03*
X129159000Y-52832000D03*
X126619000Y-52832000D03*
X124079000Y-52832000D03*
X121539000Y-52832000D03*
%TD*%
D16*
%TO.C,FB1*%
X176269000Y-54132000D03*
X177919000Y-54132000D03*
%TD*%
D17*
%TO.C,J3*%
X187635000Y-64411000D03*
X187635000Y-50711000D03*
D11*
X184785000Y-56261000D03*
D12*
X184785000Y-58861000D03*
X184785000Y-54161000D03*
X184785000Y-60961000D03*
X181985000Y-54161000D03*
X181985000Y-60961000D03*
D18*
X188435000Y-57561000D03*
%TD*%
D19*
%TO.C,U5*%
X54913296Y-95697295D03*
X55563296Y-95697295D03*
X56213296Y-95697295D03*
X56863296Y-95697295D03*
X57513296Y-95697295D03*
X58163296Y-95697295D03*
X58813296Y-95697295D03*
X59463296Y-95697295D03*
X60113296Y-95697295D03*
X60763296Y-95697295D03*
X61413296Y-95697295D03*
X62063296Y-95697295D03*
X62713296Y-95697295D03*
X63363296Y-95697295D03*
X64013296Y-95697295D03*
X64663296Y-95697295D03*
X65313296Y-95697295D03*
X65963296Y-95697295D03*
X66613296Y-95697295D03*
X67263296Y-95697295D03*
X67913296Y-95697295D03*
X68563296Y-95697295D03*
X69213296Y-95697295D03*
X69863296Y-95697295D03*
X70513296Y-95697295D03*
X71163296Y-95697295D03*
X71813296Y-95697295D03*
X72463296Y-95697295D03*
X73113296Y-95697295D03*
X73763296Y-95697295D03*
D20*
X75463296Y-93747295D03*
X75463296Y-93097295D03*
X75463296Y-92447295D03*
X75463296Y-91797295D03*
X75463296Y-91147295D03*
X75463296Y-90497295D03*
X75463296Y-89847295D03*
X75463296Y-89197295D03*
X75463296Y-88547295D03*
X75463296Y-87897295D03*
X75463296Y-87247295D03*
X75463296Y-86597295D03*
X75463296Y-85947295D03*
X75463296Y-85297295D03*
X75463296Y-84647295D03*
X75463296Y-83997295D03*
X75463296Y-83347295D03*
X75463296Y-82697295D03*
X75463296Y-82047295D03*
X75463296Y-81397295D03*
D19*
X73763296Y-79447295D03*
X73113296Y-79447295D03*
X72463296Y-79447295D03*
X71813296Y-79447295D03*
X71163296Y-79447295D03*
X70513296Y-79447295D03*
X69863296Y-79447295D03*
X69213296Y-79447295D03*
X68563296Y-79447295D03*
X67913296Y-79447295D03*
X67263296Y-79447295D03*
X66613296Y-79447295D03*
X65963296Y-79447295D03*
X65313296Y-79447295D03*
X64663296Y-79447295D03*
X64013296Y-79447295D03*
X63363296Y-79447295D03*
X62713296Y-79447295D03*
X62063296Y-79447295D03*
X61413296Y-79447295D03*
X60763296Y-79447295D03*
X60113296Y-79447295D03*
X59463296Y-79447295D03*
X58813296Y-79447295D03*
X58163296Y-79447295D03*
X57513296Y-79447295D03*
X56863296Y-79447295D03*
X56213296Y-79447295D03*
X55563296Y-79447295D03*
X54913296Y-79447295D03*
D20*
X53213296Y-81397295D03*
X53213296Y-82047295D03*
X53213296Y-82697295D03*
X53213296Y-83347295D03*
X53213296Y-83997295D03*
X53213296Y-84647295D03*
X53213296Y-85297295D03*
X53213296Y-85947295D03*
X53213296Y-86597295D03*
X53213296Y-87247295D03*
X53213296Y-87897295D03*
X53213296Y-88547295D03*
X53213296Y-89197295D03*
X53213296Y-89847295D03*
X53213296Y-90497295D03*
X53213296Y-91147295D03*
X53213296Y-91797295D03*
X53213296Y-92447295D03*
X53213296Y-93097295D03*
X53213296Y-93747295D03*
%TD*%
D21*
%TO.C,R21*%
X43688000Y-83122000D03*
X43688000Y-84772000D03*
%TD*%
D11*
%TO.C,U7*%
X138811000Y-76454000D03*
D13*
X138811000Y-78994000D03*
X138811000Y-81534000D03*
X138811000Y-84074000D03*
X138811000Y-86614000D03*
X138811000Y-89154000D03*
X138811000Y-91694000D03*
X138811000Y-94234000D03*
X138811000Y-96774000D03*
X138811000Y-99314000D03*
X138811000Y-101854000D03*
X138811000Y-104394000D03*
X138811000Y-106934000D03*
X138811000Y-109474000D03*
X154051000Y-109474000D03*
X154051000Y-106934000D03*
X154051000Y-104394000D03*
X154051000Y-101854000D03*
X154051000Y-99314000D03*
X154051000Y-96774000D03*
X154051000Y-94234000D03*
X154051000Y-91694000D03*
X154051000Y-89154000D03*
X154051000Y-86614000D03*
X154051000Y-84074000D03*
X154051000Y-81534000D03*
X154051000Y-78994000D03*
X154051000Y-76454000D03*
%TD*%
D22*
%TO.C,C2*%
X77711000Y-90551000D03*
X79261000Y-90551000D03*
%TD*%
D23*
%TO.C,R9*%
X89789000Y-40449000D03*
X89789000Y-38799000D03*
%TD*%
D24*
%TO.C,R2*%
X45275000Y-88519000D03*
X43625000Y-88519000D03*
%TD*%
D25*
%TO.C,Q2*%
X173743300Y-43058000D03*
X173743300Y-44958000D03*
X175618300Y-44008000D03*
%TD*%
D15*
%TO.C,C12*%
X154051000Y-73625000D03*
X154051000Y-72075000D03*
%TD*%
D26*
%TO.C,D10*%
X163454000Y-108458000D03*
X165354000Y-108458000D03*
X164404000Y-106583000D03*
%TD*%
D11*
%TO.C,RN4*%
X82137000Y-39243000D03*
D13*
X82137000Y-41783000D03*
X82137000Y-44323000D03*
X82137000Y-46863000D03*
X82137000Y-49403000D03*
X82137000Y-51943000D03*
X82137000Y-54483000D03*
X82137000Y-57023000D03*
X82137000Y-59563000D03*
%TD*%
D27*
%TO.C,C37*%
X90638900Y-71374000D03*
X96863900Y-71374000D03*
%TD*%
D28*
%TO.C,D3*%
X173225000Y-40386000D03*
X176025000Y-40386000D03*
%TD*%
D29*
%TO.C,C40*%
X173228000Y-112207000D03*
X173228000Y-114107000D03*
%TD*%
D30*
%TO.C,C45*%
X167767000Y-103111000D03*
X167767000Y-104661000D03*
%TD*%
D31*
%TO.C,J4*%
X36830000Y-80523000D03*
D32*
X36830000Y-77983000D03*
X39370000Y-80523000D03*
X39370000Y-77983000D03*
X41910000Y-80523000D03*
X41910000Y-77983000D03*
X44450000Y-80523000D03*
X44450000Y-77983000D03*
X46990000Y-80523000D03*
X46990000Y-77983000D03*
%TD*%
D33*
%TO.C,SW1*%
X43763000Y-38390000D03*
X37263000Y-38390000D03*
X43763000Y-42890000D03*
X37263000Y-42890000D03*
%TD*%
D22*
%TO.C,C21*%
X137769000Y-60960000D03*
X139319000Y-60960000D03*
%TD*%
D14*
%TO.C,Y2*%
X137594000Y-57404000D03*
X142494000Y-57404000D03*
%TD*%
D11*
%TO.C,RN1*%
X77343000Y-113665000D03*
D13*
X74803000Y-113665000D03*
X72263000Y-113665000D03*
X69723000Y-113665000D03*
X67183000Y-113665000D03*
X64643000Y-113665000D03*
X62103000Y-113665000D03*
X59563000Y-113665000D03*
X57023000Y-113665000D03*
%TD*%
D16*
%TO.C,R25*%
X162624000Y-88773000D03*
X164274000Y-88773000D03*
%TD*%
D30*
%TO.C,C39*%
X45466000Y-112001000D03*
X45466000Y-113551000D03*
%TD*%
D24*
%TO.C,R28*%
X165925000Y-93726000D03*
X164275000Y-93726000D03*
%TD*%
D23*
%TO.C,R17*%
X178435000Y-41973000D03*
X178435000Y-40323000D03*
%TD*%
D15*
%TO.C,C13*%
X129032000Y-75070000D03*
X129032000Y-73520000D03*
%TD*%
D34*
%TO.C,C43*%
X175032000Y-98298000D03*
X173482000Y-98298000D03*
%TD*%
%TO.C,C46*%
X173368000Y-110617000D03*
X171818000Y-110617000D03*
%TD*%
D35*
%TO.C,D6*%
X160020000Y-84325000D03*
X160020000Y-87125000D03*
%TD*%
D34*
%TO.C,C20*%
X85230000Y-69469000D03*
X83680000Y-69469000D03*
%TD*%
D35*
%TO.C,D7*%
X163703000Y-84325000D03*
X163703000Y-87125000D03*
%TD*%
D25*
%TO.C,Q3*%
X173736000Y-46487000D03*
X173736000Y-48387000D03*
X175611000Y-47437000D03*
%TD*%
D31*
%TO.C,JP2*%
X160528000Y-101727000D03*
D32*
X160528000Y-104267000D03*
%TD*%
D36*
%TO.C,C15*%
X152273000Y-73721000D03*
X152273000Y-71821000D03*
%TD*%
D31*
%TO.C,J5*%
X45339000Y-73660000D03*
D32*
X45339000Y-71120000D03*
X45339000Y-68580000D03*
X45339000Y-66040000D03*
X45339000Y-63500000D03*
X45339000Y-60960000D03*
%TD*%
D37*
%TO.C,U12*%
X169545000Y-108139000D03*
X170815000Y-108139000D03*
X172085000Y-108139000D03*
X173355000Y-108139000D03*
X174625000Y-108139000D03*
X175895000Y-108139000D03*
X177165000Y-108139000D03*
X178435000Y-108139000D03*
X178435000Y-103189000D03*
X177165000Y-103189000D03*
X175895000Y-103189000D03*
X174625000Y-103189000D03*
X173355000Y-103189000D03*
X172085000Y-103189000D03*
X170815000Y-103189000D03*
X169545000Y-103189000D03*
%TD*%
D38*
%TO.C,U9*%
X82201500Y-74168000D03*
X82201500Y-75438000D03*
X82201500Y-76708000D03*
X82201500Y-77978000D03*
X82201500Y-79248000D03*
X82201500Y-80518000D03*
X82201500Y-81788000D03*
X82201500Y-83058000D03*
X87151500Y-83058000D03*
X87151500Y-81788000D03*
X87151500Y-80518000D03*
X87151500Y-79248000D03*
X87151500Y-77978000D03*
X87151500Y-76708000D03*
X87151500Y-75438000D03*
X87151500Y-74168000D03*
%TD*%
D34*
%TO.C,C25*%
X98057000Y-42545000D03*
X96507000Y-42545000D03*
%TD*%
D24*
%TO.C,R13*%
X177913800Y-52552600D03*
X176263800Y-52552600D03*
%TD*%
%TO.C,R16*%
X52641000Y-73279000D03*
X50991000Y-73279000D03*
%TD*%
D39*
%TO.C,C36*%
X59627500Y-108966000D03*
X53402500Y-108966000D03*
%TD*%
D40*
%TO.C,D2*%
X52581000Y-71120000D03*
X49781000Y-71120000D03*
%TD*%
D30*
%TO.C,C38*%
X43942000Y-112001000D03*
X43942000Y-113551000D03*
%TD*%
%TO.C,C47*%
X187452000Y-95224000D03*
X187452000Y-96774000D03*
%TD*%
D41*
%TO.C,U6*%
X152273000Y-48387000D03*
D42*
X149733000Y-50927000D03*
X152273000Y-50927000D03*
X149733000Y-53467000D03*
X152273000Y-53467000D03*
X149733000Y-56007000D03*
X152273000Y-58547000D03*
X152273000Y-56007000D03*
X154813000Y-58547000D03*
X154813000Y-56007000D03*
X157353000Y-58547000D03*
X157353000Y-56007000D03*
X159893000Y-58547000D03*
X159893000Y-56007000D03*
X162433000Y-58547000D03*
X162433000Y-56007000D03*
X164973000Y-58547000D03*
X167513000Y-56007000D03*
X164973000Y-56007000D03*
X167513000Y-53467000D03*
X164973000Y-53467000D03*
X167513000Y-50927000D03*
X164973000Y-50927000D03*
X167513000Y-48387000D03*
X164973000Y-48387000D03*
X167513000Y-45847000D03*
X164973000Y-45847000D03*
X167513000Y-43307000D03*
X164973000Y-40767000D03*
X164973000Y-43307000D03*
X162433000Y-40767000D03*
X162433000Y-43307000D03*
X159893000Y-40767000D03*
X159893000Y-43307000D03*
X157353000Y-40767000D03*
X157353000Y-43307000D03*
X154813000Y-40767000D03*
X154813000Y-43307000D03*
X152273000Y-40767000D03*
X149733000Y-43307000D03*
X152273000Y-43307000D03*
X149733000Y-45847000D03*
X152273000Y-45847000D03*
X149733000Y-48387000D03*
%TD*%
D24*
%TO.C,R7*%
X95186000Y-65532000D03*
X93536000Y-65532000D03*
%TD*%
D16*
%TO.C,R4*%
X75629000Y-95758000D03*
X77279000Y-95758000D03*
%TD*%
D31*
%TO.C,JP1*%
X99573000Y-39624000D03*
D32*
X97033000Y-39624000D03*
%TD*%
D21*
%TO.C,R19*%
X39370000Y-83122000D03*
X39370000Y-84772000D03*
%TD*%
D43*
%TO.C,FB5*%
X179093500Y-112268000D03*
X177268500Y-112268000D03*
%TD*%
D44*
%TO.C,C35*%
X38862000Y-51497500D03*
X38862000Y-57722500D03*
%TD*%
D25*
%TO.C,Q1*%
X91948000Y-38613000D03*
X91948000Y-40513000D03*
X93823000Y-39563000D03*
%TD*%
D45*
%TO.C,C26*%
X42037000Y-48846000D03*
X42037000Y-45896000D03*
%TD*%
D34*
%TO.C,C6*%
X50940000Y-83312000D03*
X49390000Y-83312000D03*
%TD*%
D46*
%TO.C,J1*%
X37338000Y-125222000D03*
X39878000Y-125222000D03*
X42418000Y-125222000D03*
X44958000Y-125222000D03*
X47498000Y-125222000D03*
X50038000Y-125222000D03*
X52578000Y-125222000D03*
X55118000Y-125222000D03*
X57658000Y-125222000D03*
X60198000Y-125222000D03*
X62738000Y-125222000D03*
X65278000Y-125222000D03*
X67818000Y-125222000D03*
X70358000Y-125222000D03*
X72898000Y-125222000D03*
X75438000Y-125222000D03*
X77978000Y-125222000D03*
X80518000Y-125222000D03*
X90678000Y-125222000D03*
X93218000Y-125222000D03*
X95758000Y-125222000D03*
X98298000Y-125222000D03*
X100838000Y-125222000D03*
X103378000Y-125222000D03*
X105918000Y-125222000D03*
X108458000Y-125222000D03*
X110998000Y-125222000D03*
X113538000Y-125222000D03*
X116078000Y-125222000D03*
X118618000Y-125222000D03*
X121158000Y-125222000D03*
X123698000Y-125222000D03*
X126238000Y-125222000D03*
X128778000Y-125222000D03*
X131318000Y-125222000D03*
X133858000Y-125222000D03*
X136398000Y-125222000D03*
X138938000Y-125222000D03*
X141478000Y-125222000D03*
X144018000Y-125222000D03*
X146558000Y-125222000D03*
X149098000Y-125222000D03*
X151638000Y-125222000D03*
X154178000Y-125222000D03*
X156718000Y-125222000D03*
X159258000Y-125222000D03*
X161798000Y-125222000D03*
X164338000Y-125222000D03*
X166878000Y-125222000D03*
%TD*%
D29*
%TO.C,C28*%
X45466000Y-53406000D03*
X45466000Y-55306000D03*
%TD*%
D47*
%TO.C,D9*%
X117249000Y-60325000D03*
X120749000Y-60325000D03*
%TD*%
D23*
%TO.C,R23*%
X188976000Y-96824000D03*
X188976000Y-95174000D03*
%TD*%
D34*
%TO.C,C29*%
X177863800Y-62560200D03*
X176313800Y-62560200D03*
%TD*%
D23*
%TO.C,R5*%
X76962000Y-71945000D03*
X76962000Y-70295000D03*
%TD*%
D15*
%TO.C,C34*%
X145542000Y-48273000D03*
X145542000Y-46723000D03*
%TD*%
%TO.C,C11*%
X107188000Y-75070000D03*
X107188000Y-73520000D03*
%TD*%
D16*
%TO.C,FB2*%
X176269000Y-58958000D03*
X177919000Y-58958000D03*
%TD*%
D48*
%TO.C,D4*%
X181356000Y-103378000D03*
X180356000Y-103378000D03*
X180856000Y-104678000D03*
%TD*%
D24*
%TO.C,R27*%
X165925000Y-95250000D03*
X164275000Y-95250000D03*
%TD*%
D23*
%TO.C,FB4*%
X46990000Y-113601000D03*
X46990000Y-111951000D03*
%TD*%
D14*
%TO.C,Y3*%
X175170000Y-94742000D03*
X170270000Y-94742000D03*
%TD*%
D36*
%TO.C,C14*%
X105410000Y-75118000D03*
X105410000Y-73218000D03*
%TD*%
%TO.C,C41*%
X171704000Y-66609000D03*
X171704000Y-64709000D03*
%TD*%
D22*
%TO.C,C50*%
X86728000Y-69469000D03*
X88278000Y-69469000D03*
%TD*%
D30*
%TO.C,C3*%
X67310000Y-97904000D03*
X67310000Y-99454000D03*
%TD*%
D24*
%TO.C,R10*%
X37655000Y-46101000D03*
X36005000Y-46101000D03*
%TD*%
D27*
%TO.C,C49*%
X149731000Y-66421000D03*
X155956000Y-66421000D03*
%TD*%
D34*
%TO.C,C10*%
X87102500Y-72517000D03*
X85552500Y-72517000D03*
%TD*%
D22*
%TO.C,C1*%
X77724000Y-86868000D03*
X79274000Y-86868000D03*
%TD*%
D49*
%TO.C,J2*%
X184237000Y-103851000D03*
X184237000Y-103201000D03*
X184237000Y-102551000D03*
X184237000Y-101901000D03*
X184237000Y-101251000D03*
D50*
X184287000Y-106151000D03*
X187837000Y-106151000D03*
D51*
X189137000Y-103701000D03*
X189137000Y-101401000D03*
D50*
X184287000Y-98951000D03*
X187837000Y-98951000D03*
%TD*%
D30*
%TO.C,C24*%
X90678000Y-56896000D03*
X90678000Y-58446000D03*
%TD*%
D52*
%TO.C,D1*%
X39497000Y-45367000D03*
X39497000Y-48867000D03*
%TD*%
D53*
%TO.C,H1*%
X183540000Y-38898200D03*
X183540000Y-46598200D03*
X188740000Y-38898200D03*
X188740000Y-46598200D03*
%TD*%
D43*
%TO.C,R15*%
X52728500Y-75057000D03*
X50903500Y-75057000D03*
%TD*%
D24*
%TO.C,R6*%
X95186000Y-63881000D03*
X93536000Y-63881000D03*
%TD*%
D22*
%TO.C,C31*%
X176319000Y-57307000D03*
X177869000Y-57307000D03*
%TD*%
D21*
%TO.C,R22*%
X144399000Y-41974000D03*
X144399000Y-43624000D03*
%TD*%
D15*
%TO.C,C5*%
X62738296Y-77160295D03*
X62738296Y-75610295D03*
%TD*%
D11*
%TO.C,RN3*%
X86487000Y-39243000D03*
D13*
X86487000Y-41783000D03*
X86487000Y-44323000D03*
X86487000Y-46863000D03*
X86487000Y-49403000D03*
X86487000Y-51943000D03*
X86487000Y-54483000D03*
X86487000Y-57023000D03*
X86487000Y-59563000D03*
%TD*%
D22*
%TO.C,C22*%
X140830000Y-60960000D03*
X142380000Y-60960000D03*
%TD*%
D54*
%TO.C,R8*%
X99671500Y-42545000D03*
X101496500Y-42545000D03*
%TD*%
D11*
%TO.C,RN2*%
X77343000Y-116967000D03*
D13*
X74803000Y-116967000D03*
X72263000Y-116967000D03*
X69723000Y-116967000D03*
X67183000Y-116967000D03*
X64643000Y-116967000D03*
X62103000Y-116967000D03*
X59563000Y-116967000D03*
X57023000Y-116967000D03*
%TD*%
D24*
%TO.C,R14*%
X177913800Y-50952400D03*
X176263800Y-50952400D03*
%TD*%
D55*
%TO.C,D8*%
X175994000Y-117602000D03*
X172494000Y-117602000D03*
%TD*%
D15*
%TO.C,C42*%
X173482000Y-66434000D03*
X173482000Y-64884000D03*
%TD*%
D56*
%TO.C,U8*%
X95758000Y-52959000D03*
X95758000Y-51689000D03*
X95758000Y-50419000D03*
X95758000Y-49149000D03*
X95758000Y-47879000D03*
X95758000Y-46609000D03*
X95758000Y-45339000D03*
X90808000Y-45339000D03*
X90808000Y-46609000D03*
X90808000Y-47879000D03*
X90808000Y-49149000D03*
X90808000Y-50419000D03*
X90808000Y-51689000D03*
X90808000Y-52959000D03*
%TD*%
D11*
%TO.C,C17*%
X41060380Y-114300000D03*
D12*
X38560380Y-114300000D03*
%TD*%
D25*
%TO.C,Q4*%
X172036500Y-56962000D03*
X172036500Y-58862000D03*
X173911500Y-57912000D03*
%TD*%
D21*
%TO.C,R18*%
X36830000Y-83122000D03*
X36830000Y-84772000D03*
%TD*%
D36*
%TO.C,C16*%
X127254000Y-75118000D03*
X127254000Y-73218000D03*
%TD*%
D24*
%TO.C,R26*%
X173608000Y-60579000D03*
X171958000Y-60579000D03*
%TD*%
D15*
%TO.C,C51*%
X175133000Y-113932000D03*
X175133000Y-112382000D03*
%TD*%
D57*
%TO.C,X1*%
X45720000Y-107823000D03*
X45720000Y-100203000D03*
D58*
X45720000Y-92583000D03*
X38100000Y-92583000D03*
X38100000Y-107823000D03*
X38100000Y-100203000D03*
%TD*%
D30*
%TO.C,C23*%
X98363000Y-47866000D03*
X98363000Y-49416000D03*
%TD*%
D59*
%TO.C,C30*%
X178038800Y-64338200D03*
X176138800Y-64338200D03*
%TD*%
D21*
%TO.C,R12*%
X107569000Y-61593000D03*
X107569000Y-63243000D03*
%TD*%
D34*
%TO.C,C9*%
X102121000Y-65148000D03*
X100571000Y-65148000D03*
%TD*%
D21*
%TO.C,R20*%
X41910000Y-83122000D03*
X41910000Y-84772000D03*
%TD*%
%TO.C,R3*%
X46482000Y-46165000D03*
X46482000Y-47815000D03*
%TD*%
D60*
%TO.C,U3*%
X94107000Y-76962000D03*
X94107000Y-78232000D03*
X94107000Y-79502000D03*
X94107000Y-80772000D03*
X94107000Y-82042000D03*
X94107000Y-83312000D03*
X94107000Y-84582000D03*
X94107000Y-85852000D03*
X94107000Y-87122000D03*
X94107000Y-88392000D03*
X94107000Y-89662000D03*
X94107000Y-90932000D03*
X94107000Y-92202000D03*
X94107000Y-93472000D03*
X94107000Y-94742000D03*
X94107000Y-96012000D03*
X107207000Y-96012000D03*
X107207000Y-94742000D03*
X107207000Y-93472000D03*
X107207000Y-92202000D03*
X107207000Y-90932000D03*
X107207000Y-89662000D03*
X107207000Y-88392000D03*
X107207000Y-87122000D03*
X107207000Y-85852000D03*
X107207000Y-84582000D03*
X107207000Y-83312000D03*
X107207000Y-82042000D03*
X107207000Y-80772000D03*
X107207000Y-79502000D03*
X107207000Y-78232000D03*
X107207000Y-76962000D03*
%TD*%
D24*
%TO.C,R1*%
X45275000Y-86995000D03*
X43625000Y-86995000D03*
%TD*%
D29*
%TO.C,C48*%
X165989000Y-102936000D03*
X165989000Y-104836000D03*
%TD*%
D36*
%TO.C,C33*%
X143764000Y-48321000D03*
X143764000Y-46421000D03*
%TD*%
D43*
%TO.C,FB3*%
X178001300Y-60655200D03*
X176176300Y-60655200D03*
%TD*%
D34*
%TO.C,C7*%
X50940000Y-89154000D03*
X49390000Y-89154000D03*
%TD*%
D11*
%TO.C,C19*%
X162981000Y-114300000D03*
D12*
X165481000Y-114300000D03*
%TD*%
D41*
%TO.C,U1*%
X51435000Y-53467000D03*
D42*
X53975000Y-53467000D03*
X51435000Y-56007000D03*
X53975000Y-56007000D03*
X51435000Y-58547000D03*
X53975000Y-58547000D03*
X51435000Y-61087000D03*
X53975000Y-61087000D03*
X51435000Y-63627000D03*
X53975000Y-66167000D03*
X53975000Y-63627000D03*
X56515000Y-66167000D03*
X56515000Y-63627000D03*
X59055000Y-66167000D03*
X59055000Y-63627000D03*
X61595000Y-66167000D03*
X61595000Y-63627000D03*
X64135000Y-66167000D03*
X64135000Y-63627000D03*
X66675000Y-66167000D03*
X66675000Y-63627000D03*
X69215000Y-66167000D03*
X69215000Y-63627000D03*
X71755000Y-66167000D03*
X71755000Y-63627000D03*
X74295000Y-66167000D03*
X76835000Y-63627000D03*
X74295000Y-63627000D03*
X76835000Y-61087000D03*
X74295000Y-61087000D03*
X76835000Y-58547000D03*
X74295000Y-58547000D03*
X76835000Y-56007000D03*
X74295000Y-56007000D03*
X76835000Y-53467000D03*
X74295000Y-53467000D03*
X76835000Y-50927000D03*
X74295000Y-50927000D03*
X76835000Y-48387000D03*
X74295000Y-48387000D03*
X76835000Y-45847000D03*
X74295000Y-45847000D03*
X76835000Y-43307000D03*
X74295000Y-40767000D03*
X74295000Y-43307000D03*
X71755000Y-40767000D03*
X71755000Y-43307000D03*
X69215000Y-40767000D03*
X69215000Y-43307000D03*
X66675000Y-40767000D03*
X66675000Y-43307000D03*
X64135000Y-40767000D03*
X64135000Y-43307000D03*
X61595000Y-40767000D03*
X61595000Y-43307000D03*
X59055000Y-40767000D03*
X59055000Y-43307000D03*
X56515000Y-40767000D03*
X56515000Y-43307000D03*
X53975000Y-40767000D03*
X51435000Y-43307000D03*
X53975000Y-43307000D03*
X51435000Y-45847000D03*
X53975000Y-45847000D03*
X51435000Y-48387000D03*
X53975000Y-48387000D03*
X51435000Y-50927000D03*
X53975000Y-50927000D03*
%TD*%
D41*
%TO.C,U10*%
X180467000Y-73279000D03*
D42*
X177927000Y-70739000D03*
X177927000Y-73279000D03*
X175387000Y-70739000D03*
X175387000Y-73279000D03*
X172847000Y-70739000D03*
X170307000Y-73279000D03*
X172847000Y-73279000D03*
X170307000Y-75819000D03*
X172847000Y-75819000D03*
X170307000Y-78359000D03*
X172847000Y-78359000D03*
X170307000Y-80899000D03*
X172847000Y-80899000D03*
X170307000Y-83439000D03*
X172847000Y-83439000D03*
X170307000Y-85979000D03*
X172847000Y-88519000D03*
X172847000Y-85979000D03*
X175387000Y-88519000D03*
X175387000Y-85979000D03*
X177927000Y-88519000D03*
X177927000Y-85979000D03*
X180467000Y-88519000D03*
X180467000Y-85979000D03*
X183007000Y-88519000D03*
X183007000Y-85979000D03*
X185547000Y-88519000D03*
X188087000Y-85979000D03*
X185547000Y-85979000D03*
X188087000Y-83439000D03*
X185547000Y-83439000D03*
X188087000Y-80899000D03*
X185547000Y-80899000D03*
X188087000Y-78359000D03*
X185547000Y-78359000D03*
X188087000Y-75819000D03*
X185547000Y-75819000D03*
X188087000Y-73279000D03*
X185547000Y-70739000D03*
X185547000Y-73279000D03*
X183007000Y-70739000D03*
X183007000Y-73279000D03*
X180467000Y-70739000D03*
%TD*%
D30*
%TO.C,C8*%
X57531000Y-97904000D03*
X57531000Y-99454000D03*
%TD*%
D11*
%TO.C,C18*%
X85344000Y-115022621D03*
D12*
X85344000Y-117522621D03*
%TD*%
D37*
%TO.C,U4*%
X103759000Y-70101000D03*
X105029000Y-70101000D03*
X106299000Y-70101000D03*
X107569000Y-70101000D03*
X108839000Y-70101000D03*
X110109000Y-70101000D03*
X111379000Y-70101000D03*
X111379000Y-65151000D03*
X110109000Y-65151000D03*
X108839000Y-65151000D03*
X107569000Y-65151000D03*
X106299000Y-65151000D03*
X105029000Y-65151000D03*
X103759000Y-65151000D03*
%TD*%
D22*
%TO.C,C32*%
X176319000Y-55656000D03*
X177869000Y-55656000D03*
%TD*%
D37*
%TO.C,U11*%
X92456000Y-61657000D03*
X93726000Y-61657000D03*
X94996000Y-61657000D03*
X96266000Y-61657000D03*
X97536000Y-61657000D03*
X98806000Y-61657000D03*
X100076000Y-61657000D03*
X100076000Y-56707000D03*
X98806000Y-56707000D03*
X97536000Y-56707000D03*
X96266000Y-56707000D03*
X94996000Y-56707000D03*
X93726000Y-56707000D03*
X92456000Y-56707000D03*
%TD*%
D34*
%TO.C,C44*%
X171958000Y-98298000D03*
X170408000Y-98298000D03*
%TD*%
D60*
%TO.C,U2*%
X115951000Y-76962000D03*
X115951000Y-78232000D03*
X115951000Y-79502000D03*
X115951000Y-80772000D03*
X115951000Y-82042000D03*
X115951000Y-83312000D03*
X115951000Y-84582000D03*
X115951000Y-85852000D03*
X115951000Y-87122000D03*
X115951000Y-88392000D03*
X115951000Y-89662000D03*
X115951000Y-90932000D03*
X115951000Y-92202000D03*
X115951000Y-93472000D03*
X115951000Y-94742000D03*
X115951000Y-96012000D03*
X129051000Y-96012000D03*
X129051000Y-94742000D03*
X129051000Y-93472000D03*
X129051000Y-92202000D03*
X129051000Y-90932000D03*
X129051000Y-89662000D03*
X129051000Y-88392000D03*
X129051000Y-87122000D03*
X129051000Y-85852000D03*
X129051000Y-84582000D03*
X129051000Y-83312000D03*
X129051000Y-82042000D03*
X129051000Y-80772000D03*
X129051000Y-79502000D03*
X129051000Y-78232000D03*
X129051000Y-76962000D03*
%TD*%
D30*
%TO.C,C27*%
X47244000Y-53581000D03*
X47244000Y-55131000D03*
%TD*%
D53*
%TO.C,H2*%
X183540000Y-111669200D03*
X183540000Y-119369200D03*
X188740000Y-111669200D03*
X188740000Y-119369200D03*
%TD*%
D24*
%TO.C,R24*%
X161226000Y-88773000D03*
X159576000Y-88773000D03*
%TD*%
M02*
