M48
; DRILL file {KiCad 7.0.2} date Tue Feb 27 21:07:46 2024
; FORMAT={-:-/ absolute / metric / decimal}
; #@! TF.CreationDate,2024-02-27T21:07:46+01:00
; #@! TF.GenerationSoftware,Kicad,Pcbnew,7.0.2
; #@! TF.FileFunction,Plated,1,4,PTH
FMAT,2
METRIC
; #@! TA.AperFunction,Plated,PTH,ViaDrill
T1C0.350
; #@! TA.AperFunction,Plated,PTH,ComponentDrill
T2C0.600
; #@! TA.AperFunction,Plated,PTH,ComponentDrill
T3C0.800
; #@! TA.AperFunction,Plated,PTH,ComponentDrill
T4C1.000
; #@! TA.AperFunction,Plated,PTH,ComponentDrill
T5C1.100
%
G90
G05
T1
X37.084Y-50.8
X37.084Y-51.562
X37.084Y-52.324
X37.084Y-57.023
X37.084Y-57.785
X37.084Y-58.547
X38.1Y-84.836
X39.497Y-46.736
X40.64Y-50.8
X40.64Y-51.562
X40.64Y-52.324
X40.64Y-57.023
X40.64Y-57.785
X40.64Y-58.547
X40.64Y-84.772
X42.037Y-46.863
X43.688Y-48.133
X43.815Y-114.427
X44.577Y-47.498
X44.704Y-114.427
X45.085Y-52.451
X45.085Y-56.261
X45.593Y-48.768
X45.593Y-114.427
X45.847Y-52.451
X45.847Y-56.261
X46.609Y-52.451
X46.609Y-56.261
X46.609Y-114.427
X47.276Y-114.427
X47.371Y-52.451
X47.371Y-56.261
X47.625Y-86.614
X48.154Y-91.348
X48.549Y-82.931
X48.549Y-83.693
X48.549Y-88.773
X48.549Y-89.535
X48.641Y-86.614
X48.677Y-90.552
X49.221Y-102.013
X49.74Y-102.813
X49.784Y-69.596
X50.165Y-103.759
X50.406Y-89.84
X50.419Y-82.637
X50.419Y-83.947
X50.419Y-88.479
X50.654Y-98.818
X51.111Y-97.936
X51.181Y-72.263
X51.562Y-87.302
X51.816Y-97.282
X52.705Y-107.188
X52.705Y-110.744
X53.467Y-107.188
X53.467Y-110.744
X53.848Y-75.057
X53.975Y-73.787
X54.229Y-107.188
X54.229Y-110.744
X54.636Y-85.606
X54.638Y-91.449
X54.644Y-86.315
X54.651Y-92.192
X54.864Y-73.152
X55.488Y-90.092
X55.88Y-73.533
X56.261Y-89.535
X56.572Y-75.438
X56.854Y-98.417
X56.906Y-87.112
X57.023Y-61.722
X57.15Y-80.899
X57.15Y-100.33
X57.531Y-85.852
X57.785Y-80.899
X57.912Y-100.33
X57.912Y-77.682
X58.207Y-98.425
X58.928Y-107.188
X58.928Y-110.744
X59.69Y-107.188
X59.69Y-110.744
X60.452Y-107.188
X60.452Y-110.744
X62.103Y-76.708
X62.357Y-74.803
X62.357Y-94.234
X62.992Y-94.234
X63.119Y-74.803
X63.414Y-76.708
X65.278Y-80.984
X66.617Y-98.425
X66.929Y-80.899
X66.929Y-100.295
X67.564Y-80.899
X67.691Y-100.295
X67.945Y-98.425
X69.278Y-93.599
X70.231Y-93.599
X71.628Y-51.721
X71.882Y-76.708
X72.136Y-74.825
X72.136Y-94.192
X72.644Y-98.552
X72.771Y-94.192
X72.898Y-74.825
X73.192Y-76.708
X73.914Y-87.63
X73.914Y-88.265
X74.041Y-84.328
X74.041Y-84.963
X74.041Y-98.552
X76.962Y-73.025
X77.343Y-97.536
X78.232Y-89.916
X78.232Y-91.186
X78.245Y-86.192
X78.245Y-87.543
X80.115Y-86.487
X80.115Y-87.249
X80.137Y-90.17
X80.137Y-90.932
X81.374Y-84.074
X82.136Y-84.074
X82.898Y-84.074
X84.168Y-78.613
X84.168Y-80.518
X84.803Y-72.136
X84.803Y-72.898
X85.217Y-68.199
X85.979Y-68.199
X86.741Y-68.199
X87.852Y-72.136
X87.852Y-72.898
X89.219Y-47.625
X89.219Y-48.26
X89.408Y-109.671
X89.941Y-69.596
X89.941Y-73.152
X90.297Y-56.134
X90.297Y-59.182
X90.359Y-110.375
X90.703Y-69.596
X90.703Y-73.152
X91.059Y-56.134
X91.059Y-59.182
X91.186Y-92.329
X91.186Y-93.472
X91.186Y-94.742
X91.319Y-109.341
X91.465Y-69.596
X91.465Y-73.152
X91.469Y-112.546
X92.023Y-108.655
X92.202Y-118.999
X92.456Y-95.631
X92.456Y-96.393
X93.218Y-41.021
X93.726Y-108.966
X95.186Y-108.521
X95.25Y-42.545
X95.758Y-95.631
X95.758Y-96.393
X96.139Y-69.596
X96.139Y-73.152
X96.901Y-69.596
X96.901Y-73.152
X97.218Y-108.14
X97.663Y-69.596
X97.663Y-73.152
X97.79Y-45.339
X97.982Y-47.117
X97.982Y-50.165
X98.744Y-47.117
X98.744Y-50.165
X99.631Y-108.013
X99.822Y-64.767
X99.822Y-65.529
X99.841Y-105.125
X100.711Y-72.133
X101.219Y-60.833
X101.219Y-61.595
X101.219Y-62.357
X101.346Y-57.531
X101.727Y-64.389
X101.79Y-107.907
X101.981Y-90.551
X102.123Y-106.13
X102.362Y-104.648
X102.489Y-64.389
X102.489Y-70.355
X102.616Y-89.727
X102.742Y-79.811
X102.87Y-77.597
X102.87Y-78.867
X102.87Y-81.407
X102.87Y-82.677
X102.87Y-83.947
X102.87Y-85.09
X102.87Y-86.106
X102.87Y-87.757
X103.26Y-53.613
X103.378Y-62.357
X103.587Y-91.161
X103.886Y-81.972
X104.14Y-88.957
X104.146Y-61.722
X104.201Y-54.299
X104.267Y-84.455
X104.267Y-79.375
X104.394Y-74.676
X104.394Y-75.438
X104.648Y-92.262
X104.648Y-93.472
X104.648Y-94.742
X104.648Y-96.012
X104.885Y-54.964
X104.972Y-60.835
X105.156Y-72.39
X105.283Y-78.105
X105.283Y-80.645
X105.283Y-83.185
X105.283Y-85.725
X105.41Y-88.265
X105.541Y-61.599
X105.918Y-72.39
X106.045Y-52.07
X106.68Y-72.39
X107.442Y-72.39
X108.648Y-104.203
X108.839Y-62.23
X108.839Y-63.5
X108.839Y-91.567
X109.093Y-75.946
X109.601Y-103.575
X109.601Y-109.22
X110.871Y-92.329
X111.76Y-90.551
X112.16Y-103.086
X112.48Y-69.342
X112.48Y-70.104
X112.48Y-70.866
X114.3Y-95.631
X114.3Y-96.393
X115.252Y-103.441
X115.57Y-59.309
X116.903Y-102.298
X117.602Y-95.631
X117.602Y-96.393
X117.602Y-99.949
X118.491Y-101.727
X119.126Y-103.886
X119.634Y-119.38
X119.698Y-104.711
X121.032Y-101.834
X124.238Y-102.54
X124.479Y-63.246
X124.587Y-60.579
X125.349Y-75.946
X125.927Y-102.87
X126.238Y-74.663
X126.238Y-75.425
X126.575Y-100.965
X127.0Y-72.377
X127.762Y-72.377
X128.524Y-72.377
X129.286Y-72.377
X130.937Y-89.732
X132.207Y-111.887
X132.582Y-107.434
X132.715Y-78.359
X133.039Y-106.426
X133.477Y-81.534
X133.604Y-118.618
X134.63Y-118.608
X134.747Y-108.966
X134.874Y-111.315
X134.874Y-88.011
X134.874Y-112.268
X134.983Y-110.16
X135.088Y-107.548
X136.109Y-107.523
X136.271Y-78.994
X136.906Y-108.077
X139.319Y-59.69
X140.081Y-59.69
X140.335Y-111.887
X140.335Y-112.903
X140.716Y-84.963
X140.843Y-59.69
X140.843Y-87.249
X140.843Y-91.44
X140.97Y-81.534
X141.224Y-119.634
X142.66Y-47.945
X142.66Y-48.707
X143.422Y-45.659
X144.184Y-45.659
X144.399Y-50.8
X144.946Y-45.659
X145.288Y-120.142
X145.478Y-41.974
X145.708Y-45.659
X147.971Y-44.593
X148.996Y-64.643
X148.996Y-68.199
X149.758Y-64.643
X149.758Y-68.199
X150.52Y-64.643
X150.52Y-68.199
X151.257Y-73.218
X151.257Y-73.98
X152.019Y-70.932
X152.781Y-70.932
X153.543Y-70.932
X154.305Y-70.932
X155.194Y-64.643
X155.194Y-68.199
X155.956Y-64.643
X155.956Y-68.199
X156.718Y-64.643
X156.718Y-68.199
X156.864Y-89.917
X157.099Y-103.124
X159.531Y-96.266
X160.274Y-93.853
X164.465Y-118.364
X164.585Y-67.945
X165.608Y-105.852
X165.862Y-78.359
X165.862Y-87.757
X165.989Y-81.407
X166.37Y-105.852
X166.497Y-108.077
X166.497Y-108.839
X167.132Y-105.852
X167.894Y-105.852
X168.148Y-118.745
X168.529Y-107.315
X168.529Y-108.077
X168.529Y-108.839
X169.672Y-44.577
X169.672Y-45.593
X170.561Y-66.167
X170.561Y-66.929
X170.815Y-56.896
X170.815Y-58.928
X170.815Y-105.918
X170.942Y-60.579
X171.069Y-110.236
X171.069Y-110.998
X171.323Y-63.881
X171.831Y-40.386
X171.958Y-97.028
X171.958Y-105.918
X172.085Y-63.881
X172.522Y-44.958
X172.522Y-46.482
X172.72Y-97.028
X172.847Y-63.881
X172.847Y-115.062
X173.482Y-97.028
X173.609Y-63.881
X173.609Y-115.062
X173.736Y-59.055
X174.371Y-115.062
X175.133Y-115.062
X175.184Y-60.274
X175.184Y-61.036
X175.184Y-62.306
X175.184Y-63.068
X175.184Y-63.83
X175.184Y-64.592
X178.435Y-42.926
X178.918Y-50.952
X178.918Y-52.578
X178.999Y-55.402
X178.999Y-56.037
X178.999Y-56.926
X178.999Y-57.561
X180.856Y-105.402
X183.134Y-101.092
X183.261Y-100.33
X184.023Y-100.33
X184.658Y-108.585
X184.658Y-109.347
X184.785Y-100.33
X185.547Y-100.33
X185.547Y-101.092
X186.69Y-108.585
X186.69Y-109.347
X187.325Y-94.221
X188.137Y-101.401
X188.137Y-103.701
X188.214Y-94.221
X189.103Y-94.221
X189.137Y-101.401
X189.137Y-103.701
X190.137Y-101.401
X190.137Y-103.701
T3
X38.56Y-114.3
X41.06Y-114.3
X51.435Y-43.307
X51.435Y-45.847
X51.435Y-48.387
X51.435Y-50.927
X51.435Y-53.467
X51.435Y-56.007
X51.435Y-58.547
X51.435Y-61.087
X51.435Y-63.627
X53.975Y-40.767
X53.975Y-43.307
X53.975Y-45.847
X53.975Y-48.387
X53.975Y-50.927
X53.975Y-53.467
X53.975Y-56.007
X53.975Y-58.547
X53.975Y-61.087
X53.975Y-63.627
X53.975Y-66.167
X56.515Y-40.767
X56.515Y-43.307
X56.515Y-63.627
X56.515Y-66.167
X57.023Y-113.665
X57.023Y-116.967
X59.055Y-40.767
X59.055Y-43.307
X59.055Y-63.627
X59.055Y-66.167
X59.563Y-113.665
X59.563Y-116.967
X61.595Y-40.767
X61.595Y-43.307
X61.595Y-63.627
X61.595Y-66.167
X62.103Y-113.665
X62.103Y-116.967
X64.135Y-40.767
X64.135Y-43.307
X64.135Y-63.627
X64.135Y-66.167
X64.643Y-113.665
X64.643Y-116.967
X66.675Y-40.767
X66.675Y-43.307
X66.675Y-63.627
X66.675Y-66.167
X67.183Y-113.665
X67.183Y-116.967
X69.215Y-40.767
X69.215Y-43.307
X69.215Y-63.627
X69.215Y-66.167
X69.723Y-113.665
X69.723Y-116.967
X71.755Y-40.767
X71.755Y-43.307
X71.755Y-63.627
X71.755Y-66.167
X72.263Y-113.665
X72.263Y-116.967
X74.295Y-40.767
X74.295Y-43.307
X74.295Y-45.847
X74.295Y-48.387
X74.295Y-50.927
X74.295Y-53.467
X74.295Y-56.007
X74.295Y-58.547
X74.295Y-61.087
X74.295Y-63.627
X74.295Y-66.167
X74.803Y-113.665
X74.803Y-116.967
X76.835Y-43.307
X76.835Y-45.847
X76.835Y-48.387
X76.835Y-50.927
X76.835Y-53.467
X76.835Y-56.007
X76.835Y-58.547
X76.835Y-61.087
X76.835Y-63.627
X77.343Y-113.665
X77.343Y-116.967
X82.137Y-39.243
X82.137Y-41.783
X82.137Y-44.323
X82.137Y-46.863
X82.137Y-49.403
X82.137Y-51.943
X82.137Y-54.483
X82.137Y-57.023
X82.137Y-59.563
X83.873Y-65.786
X85.344Y-115.023
X85.344Y-117.523
X86.487Y-39.243
X86.487Y-41.783
X86.487Y-44.323
X86.487Y-46.863
X86.487Y-49.403
X86.487Y-51.943
X86.487Y-54.483
X86.487Y-57.023
X86.487Y-59.563
X88.773Y-65.786
X121.524Y-41.148
X121.524Y-48.768
X121.539Y-52.832
X124.064Y-41.148
X124.064Y-48.768
X124.079Y-52.832
X126.604Y-41.148
X126.604Y-48.768
X126.619Y-52.832
X129.144Y-41.148
X129.144Y-48.768
X129.159Y-52.832
X131.684Y-41.148
X131.684Y-48.768
X131.699Y-52.832
X134.224Y-41.148
X134.224Y-48.768
X134.239Y-52.832
X136.764Y-41.148
X136.764Y-48.768
X136.779Y-52.832
X137.594Y-57.404
X138.811Y-76.454
X138.811Y-78.994
X138.811Y-81.534
X138.811Y-84.074
X138.811Y-86.614
X138.811Y-89.154
X138.811Y-91.694
X138.811Y-94.234
X138.811Y-96.774
X138.811Y-99.314
X138.811Y-101.854
X138.811Y-104.394
X138.811Y-106.934
X138.811Y-109.474
X139.304Y-41.148
X139.304Y-48.768
X139.319Y-52.832
X141.859Y-52.832
X142.494Y-57.404
X149.733Y-43.307
X149.733Y-45.847
X149.733Y-48.387
X149.733Y-50.927
X149.733Y-53.467
X149.733Y-56.007
X152.273Y-40.767
X152.273Y-43.307
X152.273Y-45.847
X152.273Y-48.387
X152.273Y-50.927
X152.273Y-53.467
X152.273Y-56.007
X152.273Y-58.547
X154.051Y-76.454
X154.051Y-78.994
X154.051Y-81.534
X154.051Y-84.074
X154.051Y-86.614
X154.051Y-89.154
X154.051Y-91.694
X154.051Y-94.234
X154.051Y-96.774
X154.051Y-99.314
X154.051Y-101.854
X154.051Y-104.394
X154.051Y-106.934
X154.051Y-109.474
X154.813Y-40.767
X154.813Y-43.307
X154.813Y-56.007
X154.813Y-58.547
X157.353Y-40.767
X157.353Y-43.307
X157.353Y-56.007
X157.353Y-58.547
X159.893Y-40.767
X159.893Y-43.307
X159.893Y-56.007
X159.893Y-58.547
X162.433Y-40.767
X162.433Y-43.307
X162.433Y-56.007
X162.433Y-58.547
X162.981Y-114.3
X164.973Y-40.767
X164.973Y-43.307
X164.973Y-45.847
X164.973Y-48.387
X164.973Y-50.927
X164.973Y-53.467
X164.973Y-56.007
X164.973Y-58.547
X165.481Y-114.3
X167.513Y-43.307
X167.513Y-45.847
X167.513Y-48.387
X167.513Y-50.927
X167.513Y-53.467
X167.513Y-56.007
X170.27Y-94.742
X170.307Y-73.279
X170.307Y-75.819
X170.307Y-78.359
X170.307Y-80.899
X170.307Y-83.439
X170.307Y-85.979
X172.847Y-70.739
X172.847Y-73.279
X172.847Y-75.819
X172.847Y-78.359
X172.847Y-80.899
X172.847Y-83.439
X172.847Y-85.979
X172.847Y-88.519
X175.17Y-94.742
X175.387Y-70.739
X175.387Y-73.279
X175.387Y-85.979
X175.387Y-88.519
X177.927Y-70.739
X177.927Y-73.279
X177.927Y-85.979
X177.927Y-88.519
X180.467Y-70.739
X180.467Y-73.279
X180.467Y-85.979
X180.467Y-88.519
X181.985Y-54.161
X181.985Y-60.961
X183.007Y-70.739
X183.007Y-73.279
X183.007Y-85.979
X183.007Y-88.519
X184.785Y-54.161
X184.785Y-56.261
X184.785Y-58.861
X184.785Y-60.961
X185.547Y-70.739
X185.547Y-73.279
X185.547Y-75.819
X185.547Y-78.359
X185.547Y-80.899
X185.547Y-83.439
X185.547Y-85.979
X185.547Y-88.519
X188.087Y-73.279
X188.087Y-75.819
X188.087Y-78.359
X188.087Y-80.899
X188.087Y-83.439
X188.087Y-85.979
T4
X36.83Y-77.983
X36.83Y-80.523
X38.1Y-92.583
X38.1Y-100.203
X38.1Y-107.823
X39.37Y-77.983
X39.37Y-80.523
X41.91Y-77.983
X41.91Y-80.523
X44.45Y-77.983
X44.45Y-80.523
X45.339Y-60.96
X45.339Y-63.5
X45.339Y-66.04
X45.339Y-68.58
X45.339Y-71.12
X45.339Y-73.66
X45.72Y-92.583
X45.72Y-100.203
X45.72Y-107.823
X46.99Y-77.983
X46.99Y-80.523
X97.033Y-39.624
X99.573Y-39.624
X111.252Y-40.279
X111.252Y-46.779
X160.528Y-101.727
X160.528Y-104.267
T5
X37.263Y-38.39
X37.263Y-42.89
X43.763Y-38.39
X43.763Y-42.89
T2
G00X183.962Y-98.951
M15
G01X184.612Y-98.951
M16
G05
G00X183.962Y-106.151
M15
G01X184.612Y-106.151
M16
G05
G00X187.512Y-98.951
M15
G01X188.162Y-98.951
M16
G05
G00X187.512Y-106.151
M15
G01X188.162Y-106.151
M16
G05
T4
G00X183.14Y-38.898
M15
G01X183.94Y-38.898
M16
G05
G00X183.14Y-46.598
M15
G01X183.94Y-46.598
M16
G05
G00X183.14Y-111.669
M15
G01X183.94Y-111.669
M16
G05
G00X183.14Y-119.369
M15
G01X183.94Y-119.369
M16
G05
G00X186.885Y-50.711
M15
G01X188.385Y-50.711
M16
G05
G00X186.885Y-64.411
M15
G01X188.385Y-64.411
M16
G05
G00X188.435Y-58.561
M15
G01X188.435Y-56.561
M16
G05
G00X188.34Y-38.898
M15
G01X189.14Y-38.898
M16
G05
G00X188.34Y-46.598
M15
G01X189.14Y-46.598
M16
G05
G00X188.34Y-111.669
M15
G01X189.14Y-111.669
M16
G05
G00X188.34Y-119.369
M15
G01X189.14Y-119.369
M16
G05
T0
M30
